<svg id="Capa_1" data-name="Capa 1" xmlns="http://www.w3.org/2000/svg" viewBox="0 0 340.74 340.74"><defs><style>.cls-1{fill:none;stroke-miterlimit:10;}.cls-1,.cls-2{stroke:#3c6e71;}.cls-2{fill:#3c6e71;}</style></defs><title>ilustracion_V2.0_VERDE</title><rect class="cls-1" x="90.19" y="132.48" width="161.61" height="106.23" rx="13.7"/><rect class="cls-1" x="98.75" y="142.54" width="144.49" height="86.59" rx="13.7"/><line class="cls-1" x1="98.75" y1="203.59" x2="243.24" y2="203.59"/><rect class="cls-1" x="144.31" y="265.39" width="53.37" height="4.78"/><rect class="cls-1" x="50.47" y="207.83" width="36" height="62.43" rx="2.15"/><rect class="cls-1" x="52.73" y="215.13" width="31.21" height="46.07" rx="2.15"/><rect class="cls-1" x="61.54" y="210.97" width="14.22" height="1.38" rx="0.69"/><rect class="cls-1" x="55.25" y="217.39" width="26.43" height="7.55" rx="2.15"/><rect class="cls-1" x="55.25" y="227.34" width="11.83" height="14.35" rx="2.15"/><rect class="cls-1" x="69.47" y="227.34" width="12.21" height="14.35" rx="2.15"/><rect class="cls-1" x="55.25" y="244.08" width="26.43" height="7.43" rx="2.15"/><rect class="cls-1" x="55.25" y="253.77" width="4.66" height="4.66" rx="2.15"/><rect class="cls-1" x="62.55" y="253.77" width="4.53" height="4.53" rx="2.15"/><rect class="cls-1" x="69.47" y="253.77" width="4.66" height="4.66" rx="2.15"/><rect class="cls-1" x="76.52" y="253.77" width="5.16" height="4.53" rx="2.15"/><circle class="cls-1" cx="68.65" cy="265.72" r="2.27"/><circle class="cls-1" cx="171.13" cy="234.17" r="2.43"/><path class="cls-1" d="M713.57,364.23" transform="translate(-657.69 -232.53)"/><path class="cls-1" d="M681.67,486.49" transform="translate(-657.69 -232.53)"/><path class="cls-1" d="M681.67,486.35" transform="translate(-657.69 -232.53)"/><path class="cls-1" d="M713.88,502.79" transform="translate(-657.69 -232.53)"/><path class="cls-1" d="M966.55,501.64a8,8,0,0,1-4-7v-25a8,8,0,0,1,8-8h15.51a7.91,7.91,0,0,1,1.55.15" transform="translate(-657.69 -232.53)"/><path class="cls-1" d="M966.55,501.64" transform="translate(-657.69 -232.53)"/><path class="cls-1" d="M693.75,507.61" transform="translate(-657.69 -232.53)"/><line class="cls-1" x1="304.31" y1="275.08" x2="36.34" y2="275.08"/><path class="cls-1" d="M962,507.61" transform="translate(-657.69 -232.53)"/><path class="cls-1" d="M962.52,507.61" transform="translate(-657.69 -232.53)"/><line class="cls-1" x1="32.89" y1="270.17" x2="308.05" y2="270.17"/><circle class="cls-1" cx="290.37" cy="222.13" r="1.93"/><rect class="cls-1" x="260.45" y="141.08" width="60.15" height="84.27" rx="3.76"/><rect class="cls-1" x="267.53" y="148.47" width="46" height="70.12" rx="3.29"/><rect class="cls-1" x="298.73" y="208.95" width="12.22" height="7.4" rx="2.89"/><rect class="cls-1" x="270.1" y="208.95" width="11.9" height="7.4" rx="2.6"/><rect class="cls-1" x="284.26" y="208.95" width="12.22" height="7.4" rx="2.5"/><rect class="cls-1" x="270.1" y="189.65" width="40.53" height="17.05" rx="3.83"/><rect class="cls-1" x="298.73" y="151.05" width="12.22" height="16.4" rx="3.28"/><rect class="cls-1" x="284.26" y="151.05" width="12.22" height="16.4" rx="3.48"/><rect class="cls-1" x="270.1" y="151.05" width="11.9" height="16.4" rx="3.59"/><rect class="cls-1" x="292.3" y="170.03" width="18.66" height="17.05" rx="3.13"/><rect class="cls-1" x="270.1" y="170.03" width="18.98" height="17.05" rx="3.17"/><line class="cls-1" x1="154.46" y1="238.7" x2="152.11" y2="265.39"/><line class="cls-1" x1="187.86" y1="238.7" x2="190.21" y2="265.39"/><line class="cls-1" x1="100.85" y1="148.95" x2="241.14" y2="148.95"/><path class="cls-2" d="M816.07,409.78v-1.26l6.08-4v1.63l-4.62,3v.06l4.62,3v1.63Z" transform="translate(-657.69 -232.53)"/><path class="cls-2" d="M831.89,403.07h1.57l-8.08,14h-1.56Z" transform="translate(-657.69 -232.53)"/><path class="cls-2" d="M835.11,412.2l4.63-3v-.06l-4.63-3v-1.63l6.09,4v1.26l-6.09,4.05Z" transform="translate(-657.69 -232.53)"/><circle class="cls-1" cx="220.61" cy="145.64" r="1.35"/><circle class="cls-1" cx="224.98" cy="145.64" r="1.35"/><circle class="cls-1" cx="229.09" cy="145.64" r="1.35"/><path class="cls-1" d="M991.93,500.12" transform="translate(-657.69 -232.53)"/><line class="cls-1" x1="306.96" y1="267.59" x2="309.96" y2="267.59"/><path class="cls-1" d="M962.63,494.84" transform="translate(-657.69 -232.53)"/><path class="cls-1" d="M962.63,494.84c-6.74,0-12.2-6-12.2-13.41s5.46-13.4,12.2-13.4" transform="translate(-657.69 -232.53)"/><path class="cls-1" d="M962.79,493" transform="translate(-657.69 -232.53)"/><path class="cls-1" d="M962.63,493c-5.16,0-9.34-5.17-9.34-11.55s4.18-11.55,9.34-11.55" transform="translate(-657.69 -232.53)"/><path class="cls-1" d="M658.35,410.37a9.51,9.51,0,0,1,7.18,9A9.41,9.41,0,0,1,659.7,428" transform="translate(-657.69 -232.53)"/><path class="cls-1" d="M691.2,352.67a8.15,8.15,0,0,0-1.19,4.25,8,8,0,0,0,7.88,8,7,7,0,0,0,.8,0" transform="translate(-657.69 -232.53)"/><path class="cls-1" d="M669.62,486.26" transform="translate(-657.69 -232.53)"/><path class="cls-1" d="M687,486.47c0-4.18-3.89-7.57-8.69-7.57a10.22,10.22,0,0,0-2.09.22" transform="translate(-657.69 -232.53)"/><path class="cls-1" d="M673.36,485.48" transform="translate(-657.69 -232.53)"/><path class="cls-1" d="M679,485.21" transform="translate(-657.69 -232.53)"/><path class="cls-1" d="M701.82,502.69c0-.22,0-.43,0-.65,0-9-10-16.29-22.59-16.82" transform="translate(-657.69 -232.53)"/><circle class="cls-1" cx="30.69" cy="260.84" r="2.14"/><line class="cls-1" x1="30.95" y1="267.74" x2="44" y2="267.7"/><path class="cls-1" d="M688.64,500.27" transform="translate(-657.69 -232.53)"/><line class="cls-1" x1="4.25" y1="194" x2="23.69" y2="246.83"/><path class="cls-1" d="M657.38,408" transform="translate(-657.69 -232.53)"/><line class="cls-1" x1="33.03" y1="127.7" x2="0.54" y2="174.23"/><line class="cls-1" x1="39.74" y1="132.43" x2="5.63" y2="180.97"/><path class="cls-1" d="M658.88,417.51a2.87,2.87,0,0,1,.77,2,2.94,2.94,0,0,1-.6,1.81" transform="translate(-657.69 -232.53)"/><line class="cls-1" x1="33.54" y1="120.14" x2="42.64" y2="135.06"/><line class="cls-1" x1="28.21" y1="111.4" x2="33.54" y2="120.14"/><line class="cls-1" x1="47.84" y1="162.75" x2="42.64" y2="135.06"/><line class="cls-1" x1="28.21" y1="111.4" x2="46.29" y2="98.26"/><line class="cls-1" x1="64.67" y1="119.75" x2="46.17" y2="98.35"/><line class="cls-1" x1="89.09" y1="133.84" x2="64.67" y2="119.75"/><line class="cls-1" x1="47.84" y1="162.75" x2="89.09" y2="133.84"/><rect class="cls-1" x="687.05" y="345.25" width="14.07" height="2.87" transform="translate(-91.16 -651.14) rotate(54)"/><rect class="cls-1" x="692.44" y="341.33" width="14.07" height="2.87" transform="translate(-92.1 -657.12) rotate(54)"/><rect class="cls-1" x="697.43" y="337.7" width="14.07" height="2.87" transform="translate(-92.98 -662.65) rotate(54)"/><line class="cls-1" x1="41.3" y1="270.16" x2="44.14" y2="270.15"/><path class="cls-1" d="M658.79,417.32q-.43-5.24-.56-10.56" transform="translate(-657.69 -232.53)"/><path class="cls-1" d="M659.21,421.64q-.24-2.16-.42-4.32" transform="translate(-657.69 -232.53)"/><path class="cls-1" d="M660,427.93q-.46-3.14-.81-6.29" transform="translate(-657.69 -232.53)"/><path class="cls-1" d="M676.21,479.12A168.37,168.37,0,0,1,660,427.93" transform="translate(-657.69 -232.53)"/><path class="cls-1" d="M679.44,485.23q-1.68-3-3.23-6.11" transform="translate(-657.69 -232.53)"/><path class="cls-1" d="M688.84,500.27a169.79,169.79,0,0,1-9.4-15" transform="translate(-657.69 -232.53)"/><path class="cls-1" d="M690.58,502.7c-.59-.8-1.16-1.61-1.74-2.43" transform="translate(-657.69 -232.53)"/><path class="cls-1" d="M694.29,507.61c-1.27-1.61-2.5-3.25-3.71-4.91" transform="translate(-657.69 -232.53)"/><path class="cls-1" d="M658.23,406.76c0-1.28,0-2.57,0-3.86a169.87,169.87,0,1,1,36.1,104.71" transform="translate(-657.69 -232.53)"/></svg>